<mxfile host="65bd71144e">
    <diagram id="CGE-V-YyImQBMw3J6Rf1" name="Page-1">
        <mxGraphModel dx="1552" dy="450" grid="1" gridSize="10" guides="1" tooltips="1" connect="1" arrows="1" fold="1" page="1" pageScale="1" pageWidth="850" pageHeight="1100" math="0" shadow="0">
            <root>
                <mxCell id="0"/>
                <mxCell id="1" parent="0"/>
                <mxCell id="2" value="Customer" style="whiteSpace=wrap;html=1;align=center;" vertex="1" parent="1">
                    <mxGeometry x="100" y="100" width="100" height="40" as="geometry"/>
                </mxCell>
                <mxCell id="3" value="Product" style="whiteSpace=wrap;html=1;align=center;" vertex="1" parent="1">
                    <mxGeometry x="110" y="210" width="100" height="40" as="geometry"/>
                </mxCell>
                <mxCell id="4" value="Order" style="whiteSpace=wrap;html=1;align=center;" vertex="1" parent="1">
                    <mxGeometry x="325" y="80" width="100" height="40" as="geometry"/>
                </mxCell>
                <mxCell id="5" value="Order Detail" style="whiteSpace=wrap;html=1;align=center;" vertex="1" parent="1">
                    <mxGeometry x="490" y="50" width="100" height="40" as="geometry"/>
                </mxCell>
                <mxCell id="6" value="Transaction" style="whiteSpace=wrap;html=1;align=center;" vertex="1" parent="1">
                    <mxGeometry x="110" y="330" width="100" height="40" as="geometry"/>
                </mxCell>
                <mxCell id="7" value="Supplier" style="whiteSpace=wrap;html=1;align=center;" vertex="1" parent="1">
                    <mxGeometry x="-30" y="350" width="100" height="40" as="geometry"/>
                </mxCell>
                <mxCell id="8" value="Category" style="whiteSpace=wrap;html=1;align=center;" vertex="1" parent="1">
                    <mxGeometry x="460" y="210" width="100" height="40" as="geometry"/>
                </mxCell>
                <mxCell id="9" value="Ad" style="whiteSpace=wrap;html=1;align=center;" vertex="1" parent="1">
                    <mxGeometry x="440" y="320" width="100" height="40" as="geometry"/>
                </mxCell>
                <mxCell id="10" value="belongs to" style="shape=rhombus;perimeter=rhombusPerimeter;whiteSpace=wrap;html=1;align=center;" vertex="1" parent="1">
                    <mxGeometry x="270" y="200" width="120" height="60" as="geometry"/>
                </mxCell>
                <mxCell id="21" value="" style="endArrow=none;html=1;rounded=0;exitX=1;exitY=0.5;exitDx=0;exitDy=0;entryX=0;entryY=0.5;entryDx=0;entryDy=0;" edge="1" parent="1" source="10" target="8">
                    <mxGeometry relative="1" as="geometry">
                        <mxPoint x="390" y="260" as="sourcePoint"/>
                        <mxPoint x="550" y="260" as="targetPoint"/>
                    </mxGeometry>
                </mxCell>
                <mxCell id="22" value="1" style="resizable=0;html=1;align=right;verticalAlign=bottom;" connectable="0" vertex="1" parent="21">
                    <mxGeometry x="1" relative="1" as="geometry"/>
                </mxCell>
                <mxCell id="23" value="" style="endArrow=none;html=1;rounded=0;exitX=0;exitY=0.5;exitDx=0;exitDy=0;entryX=1;entryY=0.5;entryDx=0;entryDy=0;" edge="1" parent="1" source="10" target="3">
                    <mxGeometry relative="1" as="geometry">
                        <mxPoint x="200" y="240" as="sourcePoint"/>
                        <mxPoint x="70" y="240" as="targetPoint"/>
                    </mxGeometry>
                </mxCell>
                <mxCell id="24" value="N" style="resizable=0;html=1;align=right;verticalAlign=bottom;" connectable="0" vertex="1" parent="23">
                    <mxGeometry x="1" relative="1" as="geometry"/>
                </mxCell>
            </root>
        </mxGraphModel>
    </diagram>
</mxfile>